<svg id="Layer_1" data-name="Layer 1" xmlns="http://www.w3.org/2000/svg" viewBox="0 0 404.4 404.4"><defs><style>.cls-1{fill:#fff;}</style></defs><title>Untitled-1</title><path class="cls-1" d="M202-38.9a153.84,153.84,0,0,1,20.44,76.62c0,85.45-69.51,155-155,155s-155-69.51-155-155,69.52-155,155-155A153.84,153.84,0,0,1,144.1-96.8L166.31-119A184.19,184.19,0,0,0,67.49-147.8C-34.81-147.8-118-64.58-118,37.72S-34.81,223.24,67.49,223.24,253,140,253,37.72a184.19,184.19,0,0,0-28.79-98.83Z" transform="translate(118.04 181.16)"/><path class="cls-1" d="M281.53-143.23l-24-4.34a5.87,5.87,0,0,1-4.74-4.74l-4.34-24a5.87,5.87,0,0,0-9.93-3.11l-45.18,45.18a5.88,5.88,0,0,0-1.63,5.2l3.21,17.75L56.68,26.91A15.28,15.28,0,1,0,78.29,48.52L216.51-89.7l17.75,3.21a5.87,5.87,0,0,0,5.2-1.63l45.18-45.18A5.87,5.87,0,0,0,281.53-143.23Z" transform="translate(118.04 181.16)"/><path class="cls-1" d="M124.75-77.45a127.79,127.79,0,0,0-57.27-13.6A128.78,128.78,0,1,0,196.26,37.72a127.79,127.79,0,0,0-13.6-57.27L159.48,3.63a97.54,97.54,0,0,1,6.22,34.09A98.21,98.21,0,1,1,67.49-60.5a97.56,97.56,0,0,1,34.09,6.22Z" transform="translate(118.04 181.16)"/><path class="cls-1" d="M42.23,5.07L80.38-33.08a72,72,0,1,0,59.13,70.8,72,72,0,0,0-1.22-12.9L100.18,62.93A41.31,41.31,0,1,1,42.23,5.07Z" transform="translate(118.04 181.16)"/></svg>