<?xml version="1.0" encoding="utf-8"?>
<!-- Generator: Adobe Illustrator 22.0.1, SVG Export Plug-In . SVG Version: 6.00 Build 0)  -->
<svg version="1.1" id="Layer_1" xmlns="http://www.w3.org/2000/svg" xmlns:xlink="http://www.w3.org/1999/xlink" x="0px" y="0px"
	 viewBox="0 0 60 40" style="enable-background:new 0 0 60 40;" xml:space="preserve">
<path d="M31.5,34.2c0.5-0.2,0.9-0.5,1.3-0.9l21-21c0.8-0.7,1.2-1.8,1.2-2.8s-0.4-2-1.2-2.8c-1.6-1.6-4.1-1.6-5.7,0L30,24.8L11.9,6.6
	C10.3,5,7.8,5,6.2,6.6s-1.6,4.1,0,5.7l21,21l0,0c0.4,0.4,0.8,0.7,1.3,0.9l0,0c0.1,0,0.2,0.1,0.3,0.1C29.7,34.6,30.7,34.6,31.5,34.2z
	"/>
</svg>
