<?xml version="1.0" encoding="utf-8"?>
<!-- Generator: Adobe Illustrator 22.0.1, SVG Export Plug-In . SVG Version: 6.00 Build 0)  -->
<svg version="1.1" id="Layer_1" xmlns="http://www.w3.org/2000/svg" xmlns:xlink="http://www.w3.org/1999/xlink" x="0px" y="0px"
	 viewBox="0 0 40 60" style="enable-background:new 0 0 40 60;" xml:space="preserve">
<path d="M34.3,28.8c0-0.1-0.1-0.2-0.1-0.3l0,0c-0.2-0.5-0.5-0.9-0.9-1.3l0,0l-21-21c-1.6-1.6-4.1-1.6-5.7,0s-1.6,4.1,0,5.7L24.8,30
	L6.7,48.1c-1.6,1.6-1.6,4.1,0,5.7C7.5,54.6,8.5,55,9.5,55s2.1-0.4,2.8-1.2l21-21c0.4-0.4,0.7-0.8,0.9-1.3
	C34.6,30.7,34.6,29.7,34.3,28.8z"/>
</svg>
