<?xml version="1.0" encoding="utf-8"?>
<!-- Generator: Adobe Illustrator 22.0.1, SVG Export Plug-In . SVG Version: 6.00 Build 0)  -->
<svg version="1.1" id="Layer_1" xmlns="http://www.w3.org/2000/svg" xmlns:xlink="http://www.w3.org/1999/xlink" x="0px" y="0px"
	 viewBox="0 0 60 40" style="enable-background:new 0 0 60 40;" xml:space="preserve">
<path d="M28.5,5.8C28,6,27.6,6.3,27.2,6.7l-21,21C5.4,28.4,5,29.5,5,30.5s0.4,2,1.2,2.8c1.6,1.6,4.1,1.6,5.7,0L30,15.2l18.1,18.2
	c1.6,1.6,4.1,1.6,5.7,0c1.6-1.6,1.6-4.1,0-5.7l-21-21l0,0C32.4,6.3,32,6,31.5,5.8l0,0c-0.1,0-0.2-0.1-0.3-0.1
	C30.3,5.4,29.3,5.4,28.5,5.8z"/>
</svg>
