<?xml version="1.0" encoding="utf-8"?>
<!-- Generator: Adobe Illustrator 22.0.1, SVG Export Plug-In . SVG Version: 6.00 Build 0)  -->
<svg version="1.1" id="Layer_1" xmlns="http://www.w3.org/2000/svg" xmlns:xlink="http://www.w3.org/1999/xlink" x="0px" y="0px"
	 viewBox="0 0 40 60" style="enable-background:new 0 0 40 60;" xml:space="preserve">
<path d="M5.7,31.5c0.2,0.5,0.5,0.9,0.9,1.3l21,21c0.7,0.8,1.8,1.2,2.8,1.2s2-0.4,2.8-1.2c1.6-1.6,1.6-4.1,0-5.7L15.1,30l18.2-18.1
	c1.6-1.6,1.6-4.1,0-5.7s-4.1-1.6-5.7,0l-21,21l0,0c-0.4,0.4-0.7,0.8-0.9,1.3l0,0c0,0.1-0.1,0.2-0.1,0.3C5.3,29.7,5.3,30.7,5.7,31.5z
	"/>
</svg>
