<svg version="1.1" id="Layer_1" xmlns="http://www.w3.org/2000/svg" width="100%" height="100%" viewBox="0 0 100 100" >
<g>
	<g>
		<path fill="#FFFFFF" d="M52.1,71c1.4,1.7,1.4,4.1-0.1,5.7L51.7,77l-0.4,0.4l1.1,1.1c1.5,1.4,3.4,1.7,4.4,0.6c1-1,0.6-3-0.8-4.4
			L52.1,71z"/>
		<path fill="#FFFFFF" d="M73.4,61.5c-1.5-1.4-6.8-6.5-9.2-8.9c-1.7-0.2-3.3-0.7-4.8-1.5c-1.3-0.7-2.4-1.5-3.4-2.5
			c-0.7-0.6-1.2-1.3-1.8-2.1c-1-1.4-1.7-3-1.9-4.5c-0.3,0.1-0.7,0.2-1.1,0.3c-0.8,0.1-1.5,0.2-2.2,0.2c-0.2,0-0.5,0-0.6,0
			c-0.4,1.1-1.1,2.4-1.9,3.5c-1,1.4-2.1,2.6-3.1,3.1c-0.7,0.3-1.6,0.6-2.4,0.6c-0.8,0-1.6-0.1-2.3-0.5c-0.7-0.4-1.3-1-1.6-1.9l0-0.1
			l0-0.1c0-0.8,0.4-1.7,0.6-2.6c0.3-0.8,0.5-1.6,0.6-2.1c0.3-1.1,0.5-4.1,0.6-5.2c0.1-0.6,0.2-1.7,0.8-2.4c0.4-0.5,2.3-2.1,5-2.4
			c0,0-4-2.4-5.9-2.6c-1.9-0.2-3.6,0.5-5.9,1.5c-1.6,0.7-2.6,0.7-2.6,0.7L29.4,32l0,0l-7.9,25.4c0.1,0,0.2,0.1,0.2,0.1
			c2.2,0.9,4.7,2.2,4.7,2.2l2.9-3c1.4-1.5,3.9-1.4,5.4,0.1c1.2,1.2,1.5,2.9,1,4.3c1.4-1.1,3.5-1,4.9,0.3c1.1,1.1,1.4,2.6,1,3.9
			c1.3-1.2,4.2-1.1,5.3,0.7c0,0,0,0,0.1,0c0-0.3,0-0.4,0.2-0.6c0.4-0.4,0.8-0.1,0.8-0.1l0,0l0.8,0.7c0,0,0.1,0.1,0.2,0.1l9.9,9.5
			c1.5,1.4,3.6,1.6,4.7,0.4c1.1-1.2,0.9-3.3-0.6-4.7l-7.1-6.8l-4-3.8l-0.1,0c0,0-0.3-0.4,0.1-0.8c0.4-0.4,0.8-0.1,0.8-0.1l0,0
			l9.3,8.9l4.2,4c1.4,1,3.1,1,4.1-0.1c1.1-1.2,0.9-3.3-0.6-4.7l-4.5-4.3l-7.3-7l-0.1,0c0,0-0.3-0.4,0.1-0.8c0.4-0.4,0.8-0.1,0.8-0.1
			l0,0l9.3,8.9l1.7,1.6c1.5,1.2,3.3,1.5,4.6,0C76.2,64.1,73.4,61.5,73.4,61.5z"/>

			<rect x="-4.1" y="34.7" transform="matrix(0.298 -0.9546 0.9546 0.298 -31.9477 38.4391)" fill="#FFFFFF" width="28.5" height="12.4"/>
		<path fill="#FFFFFF" d="M21.5,29.6l-7.9,25.3l6.7,2.1l7.9-25.3L21.5,29.6z M19,53.6c-0.2,0.7-0.9,1-1.6,0.8
			c-0.7-0.2-1-0.9-0.8-1.6c0.2-0.7,0.9-1,1.6-0.8C18.8,52.2,19.2,52.9,19,53.6z"/>
	</g>
	<g>
		<path fill="#FFFFFF" d="M39.7,62.2c-1.3-1.2-3.2-1.1-4.4,0.1L32,65.9c-1.2,1.3-1.1,3.2,0.1,4.4l0,0c1.3,1.2,3.2,1.1,4.4-0.1
			l3.3-3.5C41,65.4,41,63.4,39.7,62.2L39.7,62.2z"/>
		<path fill="#FFFFFF" d="M45.9,66.5c-1.3-1.2-3.2-1.1-4.4,0.1l-4.7,5c-1.2,1.3-1.1,3.2,0.1,4.4l0,0c1.3,1.2,3.2,1.1,4.4-0.2l4.7-5
			C47.2,69.6,47.2,67.7,45.9,66.5L45.9,66.5z"/>
		<path fill="#FFFFFF" d="M33.8,57.6c-1.3-1.2-3.2-1.1-4.4,0.1l0,0l0,0L27,60.3c-1.2,1.3-1.1,3.2,0.1,4.4c1.3,1.2,3.2,1.1,4.4-0.1
			l1.8-2l0,0l0.5-0.6C35.1,60.8,35.1,58.8,33.8,57.6z"/>
		<path fill="#FFFFFF" d="M50.7,72.1c-1.3-1.2-3.2-1.1-4.4,0.1l-0.5,0.6l0,0L45,73.7c-1.2,1.3-1.1,3.2,0.1,4.4
			c1.3,1.2,3.2,1.1,4.4-0.1l1.2-1.3l0.2-0.2C52.1,75.3,52,73.3,50.7,72.1z"/>
		<g>
			<path fill="#FFFFFF" d="M70.3,32.7l9.9,24.6l6.5-2.6l-9.9-24.6L70.3,32.7z M81.9,52.2c0.6-0.3,1.4,0.1,1.6,0.7
				c0.3,0.7-0.1,1.4-0.7,1.7c-0.7,0.3-1.4-0.1-1.7-0.7C80.9,53.2,81.2,52.5,81.9,52.2z"/>

				<rect x="74.7" y="34.3" transform="matrix(0.3724 0.9281 -0.9281 0.3724 93.4402 -57.103)" fill="#FFFFFF" width="28.5" height="12.4"/>
			<g>
				<path fill="#FFFFFF" d="M69,33c-2.1-0.4-7.4-0.4-11.8-2c-1.7-0.6-2.7-0.9-3.6-0.9c-1.2,0-2,0.6-3.2,1.2c-1.9,1-5.4,2.2-7.8,2.9
					c-1.2,0.4-1.8,0.9-2.2,1.5c-0.4,0.5-0.5,1.1-0.5,1.7c-0.1,1.1-0.4,4.1-0.6,5.4c-0.1,0.7-0.2,1.5-0.5,2.3
					c-0.3,0.8-0.7,1.4-0.7,1.9c0.2,0.5,0.5,0.9,0.9,1.1c0.5,0.2,1.1,0.4,1.7,0.3c0.7,0,1.4-0.2,1.9-0.5c0.8-0.4,1.8-1.5,2.7-2.8
					c0.9-1.3,1.7-2.8,1.9-3.7l0.2-0.6l0.6,0.2c0,0,0.5,0.1,0.9,0.1c0.6,0,1.3-0.1,2-0.2c0.7-0.1,1.4-0.3,1.6-0.4l0.8-0.3l0,0.8
					c0.1,1.4,0.7,3,1.7,4.4c0.5,0.7,1.1,1.4,1.7,2.1c0.1,0.1,0.2,0.2,0.3,0.3c2,1.8,4.6,3.2,7.4,3.4l0.2,0l0,0c2.8,0.1,4.8,0,4.8,0
					c-0.9,0.9-2.8,1.1-3.7,1.2c2.6,2.5,7,6.8,8.7,8.4c1-0.5,3.3-2.2,4.3-3.2c0,0-0.1,0.1,0,0l-9.9-24.5C69.1,33.2,69,33.1,69,33z"/>
			</g>
		</g>
	</g>
</g>
</svg>