<?xml version="1.0" encoding="utf-8"?>
<!-- Generator: Adobe Illustrator 21.1.0, SVG Export Plug-In . SVG Version: 6.00 Build 0)  -->
<svg version="1.1" id="Layer_1" xmlns="http://www.w3.org/2000/svg" xmlns:xlink="http://www.w3.org/1999/xlink" x="0px" y="0px"
	 viewBox="0 0 1000 1000" style="enable-background:new 0 0 1000 1000;" xml:space="preserve">
<g id="background">
	<path d="M979,474c14,285-220,519-504,504C231,966,33,768,21,524C6,239,241,5,525,20C769,32,967,230,979,474z"/>
</g>
<g id="line">
	<path style="fill:#FFFFFF;" d="M995,475.2L995,475.2c-6-122-57.4-237.2-144.7-324.5S647.8,12,525.8,6
		c-71.6-3.8-141.5,7.5-207.5,33.5c-63.6,25-120.4,62.3-169,110.9c-48.5,48.5-85.8,105.3-110.8,168.8c-26,66-37.3,135.9-33.5,207.6
		c6,122,57.4,237.2,144.7,324.5S352.2,990,474.2,996c9,0.5,18,0.7,26.9,0.7c62,0,122.4-11.4,179.9-34c63.3-24.9,120-62,168.5-110.3
		c48.7-48.5,86.2-105.4,111.4-169.1C987,617.2,998.5,547.2,995,475.2z M826.8,829.8C734.3,922,606.4,970.9,475.8,964
		C241.3,952.5,48.5,759.7,37,525.2C30.1,394.1,79.3,265.7,172,173C259,86,377.3,37.3,499.8,37.3c8.1,0,16.2,0.2,24.4,0.6
		C758.7,49.5,951.5,242.3,963,476.8l0,0C969.5,608.4,919.8,737.1,826.8,829.8z"/>
	<polygon style="fill:#FFFFFF;" points="775,430 570,430 570,225 430,225 430,430 225,430 225,570 430,570 430,775 570,775 570,570 
		775,570 	"/>
</g>
</svg>
