<?xml version="1.0" encoding="utf-8"?>
<!-- Generator: Adobe Illustrator 21.1.0, SVG Export Plug-In . SVG Version: 6.00 Build 0)  -->
<svg version="1.1" xmlns="http://www.w3.org/2000/svg" xmlns:xlink="http://www.w3.org/1999/xlink" x="0px" y="0px"
	 viewBox="0 0 1000 1000" style="enable-background:new 0 0 1000 1000;" xml:space="preserve">
<g id="background">
	<path d="M979,474c14,285-220,519-504,504C231,966,33,768,21,524C6,239,241,5,525,20C769,32,967,230,979,474z
		"/>
</g>
<g id="line">
	<path style="fill:#FFFFFF;" d="M995,475.2L995,475.2c-6-122-57.4-237.2-144.7-324.5C763,63.4,647.8,12,525.8,6
		c-71.6-3.8-141.5,7.5-207.5,33.5c-63.6,25-120.4,62.3-169,110.9c-48.5,48.5-85.8,105.3-110.8,168.8C12.5,385.2,1.2,455.1,5,526.8
		c6,122,57.4,237.2,144.7,324.5C237,938.6,352.2,990,474.2,996c9,0.5,18,0.7,26.9,0.7c62,0,122.4-11.4,179.9-34
		c63.3-24.9,120-62,168.5-110.3c48.7-48.5,86.2-105.4,111.4-169.1C987,617.2,998.5,547.2,995,475.2z M826.8,829.8
		C734.3,922,606.4,970.9,475.8,964C241.3,952.5,48.5,759.7,37,525.2C30.1,394.1,79.3,265.7,172,173C259,86,377.3,37.3,499.8,37.3
		c8.1,0,16.2,0.2,24.4,0.6C758.7,49.5,951.5,242.3,963,476.8v0C969.5,608.4,919.8,737.1,826.8,829.8z"/>
	<path style="fill:#FFFFFF;" d="M386.5,478.2l-27-21.1c40.7-44.9,77.8-76.9,111.4-95.9s62.1-28.5,85.7-28.5c13,0,23,2.8,29.9,8.5
		c6.9,5.7,10.4,13.4,10.4,23.1c0,11.8-13.2,62-39.7,150.6c-43.1,144.9-64.7,232.2-64.7,262c0,5.8,1.4,10.7,4.3,14.7
		c2.8,4,5.9,5.9,9.2,5.9c13,0,46.4-25.8,100.1-77.5l23.5,23.5c-55.7,53.2-96.4,87.3-122.1,102.1c-25.6,14.9-46.6,22.3-62.8,22.3
		c-14.2,0-25.5-4.5-33.9-13.6c-8.3-9.1-12.5-21.6-12.5-37.7c0-51,30.7-175.7,92-374c2.9-9.4,4.3-17.7,4.3-25.1
		c0-8.1-3.7-12.1-11-12.1c-8.1,0-17.4,3.3-27.8,9.9C445.3,421.9,422.2,442.9,386.5,478.2z M597.6,132c12.5,0,22.7,4.1,30.8,12.4
		c8.1,8.3,12.1,18.9,12.1,31.8c0,17.8-6.1,33.4-18.4,47s-26.1,20.3-41.4,20.3c-12.1,0-22.2-4.2-30.2-12.7
		c-8.1-8.5-12.1-19.6-12.1-33.3c0-18.2,5.8-33.6,17.5-46.4C567.6,138.4,581.5,132,597.6,132z"/>
</g>
</svg>
