<?xml version="1.0" encoding="utf-8"?>
<!-- Generator: Adobe Illustrator 21.1.0, SVG Export Plug-In . SVG Version: 6.00 Build 0)  -->
<svg version="1.1" id="Layer_1" xmlns="http://www.w3.org/2000/svg" xmlns:xlink="http://www.w3.org/1999/xlink" x="0px" y="0px"
	 viewBox="0 0 100 100" style="enable-background:new 0 0 100 100;" preserveAspectRatio="xMidYMid meet" xml:space="preserve">
<style type="text/css">
	.st0{fill:white !important;}
</style>	 
<path class="st0" d="M90,30H10c-2.7,0-5-2.2-5-5v0c0-2.7,2.2-5,5-5h80c2.7,0,5,2.2,5,5v0C95,27.8,92.8,30,90,30z"/>
<path class="st0" d="M90,55H10c-2.7,0-5-2.2-5-5v0c0-2.8,2.2-5,5-5h80c2.7,0,5,2.2,5,5v0C95,52.8,92.8,55,90,55z"/>
<path class="st0" d="M90,80H10c-2.7,0-5-2.3-5-5v0c0-2.7,2.2-5,5-5h80c2.7,0,5,2.3,5,5v0C95,77.8,92.8,80,90,80z"/>
</svg>
