<?xml version="1.0" encoding="utf-8"?>
<!-- Generator: Adobe Illustrator 22.0.1, SVG Export Plug-In . SVG Version: 6.00 Build 0)  -->
<svg version="1.1" id="Layer_1" xmlns="http://www.w3.org/2000/svg" xmlns:xlink="http://www.w3.org/1999/xlink" x="0px" y="0px"
	 viewBox="0 0 504 156" style="enable-background:new 0 0 504 156;" xml:space="preserve">
<g>
	<g>
		<g>
			<path style="fill:#FFFFFF;" d="M177.5,53.5v17.8c-2.7,2.4-6.1,4.4-10.2,5.7c-3.7,1.3-8.1,1.9-13,1.9c-8.2,0-14.8-1.9-20-5.7
				c-5.8-4.2-8.7-10.3-8.7-18.1c0-8.6,2.9-15.1,8.8-19.5c5.3-3.9,12.3-5.9,21.2-5.9c8.3,0,15,1.9,20.1,5.8V46
				c-5.2-5.4-11.7-8.1-19.7-8.1c-5.9,0-10.6,1.3-14,3.9c-3.8,2.9-5.7,7.2-5.7,12.9c0,5.6,1.8,9.9,5.5,13.1c3.4,3,8,4.5,13.6,4.5
				c4,0,7.7-0.9,11.1-2.8V53.5H177.5z"/>
			<path style="fill:#FFFFFF;" d="M202.5,62.1v16h-11.1V30.6h23.2c4.6,0,8.3,0.2,10.9,0.6c2.6,0.4,4.9,1,6.7,1.8
				c5.6,2.5,8.3,6.7,8.3,12.5c0,6.1-2.9,10.6-8.6,13.4c-4.3,2.1-9.9,3.2-16.8,3.2H202.5z M202.5,38.4v16.5h12.2
				c9.7,0,14.5-2.8,14.5-8.5c0-3.3-1.7-5.6-5.1-6.9c-2.1-0.7-5.2-1.1-9.3-1.1H202.5z"/>
		</g>
		<g>
			<path style="fill:#FFFFFF;" d="M126.6,121.7l0.1-6.1c3.9,3.3,8.1,5,12.5,5c2.1,0,3.9-0.3,5.4-0.9c2.1-0.9,3.1-2.2,3.1-4
				c0-1.2-0.6-2.2-1.7-3c-1.4-0.9-3.6-1.6-6.7-2.2l-1.6-0.3c-3.6-0.7-6.3-1.5-8.1-2.5c-0.6-0.3-1.2-0.7-1.7-1.2
				c-0.6-0.6-1.1-1.1-1.3-1.5c-0.6-1-1-2.2-1-3.7c0-3.1,1.4-5.5,4.1-7.4c2.8-1.8,6.4-2.8,10.9-2.8c4.6,0,8.8,1.1,12.7,3.2l-0.1,6.8
				c-1.6-1.5-3.5-2.7-5.6-3.5c-2.3-0.8-4.5-1.3-6.7-1.3c-1.9,0-3.6,0.3-5,0.8c-2,0.8-3,2-3,3.6c0,1.4,1,2.5,3.1,3.3
				c0.9,0.3,2.5,0.7,4.8,1.2l1.6,0.3c3.5,0.7,5.9,1.4,7.5,2.2c3.3,1.7,5,4.2,5,7.4c0,3.4-1.8,6.1-5.3,7.9c-2.8,1.5-6.1,2.2-9.8,2.2
				C134.6,125.4,130.1,124.1,126.6,121.7z"/>
			<path style="fill:#FFFFFF;" d="M171.1,124.8V97.2h-12.8v-5.5h33.3v5.5h-12.8v27.6H171.1z"/>
			<path style="fill:#FFFFFF;" d="M215.2,91.7c5.9,0,10.3,0.7,13,2.1c2.8,1.4,4.1,3.7,4.1,6.8c0,6.4-5.2,9.6-15.6,9.6l16.3,14.5
				h-9.7l-17.7-16v16h-7.7V91.7H215.2z M205.7,97.2v9.3h10.5c5.6,0,8.4-1.6,8.4-4.7c0-2-1.1-3.4-3.4-4.1c-1.3-0.4-3.3-0.6-5.9-0.6
				H205.7z"/>
			<path style="fill:#FFFFFF;" d="M235.5,124.8l15.5-33.1h11.4l15.6,33.1h-8.4l-4.1-8.9h-18.3l-3.9,8.9H235.5z M249.2,111.2h14.2
				l-7.1-16.6L249.2,111.2z"/>
			<path style="fill:#FFFFFF;" d="M288.8,124.8V97.2H276v-5.5h33.3v5.5h-12.8v27.6H288.8z"/>
			<path style="fill:#FFFFFF;" d="M315.6,124.8V91.7h29v5.5h-21.3v8.7h21.3v5h-21.3v8.9h21.3v5H315.6z"/>
			<path style="fill:#FFFFFF;" d="M388.7,107.6V120c-1.9,1.7-4.2,3-7.1,4c-2.6,0.9-5.6,1.3-9,1.3c-5.7,0-10.3-1.3-13.9-4
				c-4-3-6.1-7.2-6.1-12.6c0-6,2-10.5,6.1-13.6c3.7-2.7,8.6-4.1,14.7-4.1c5.8,0,10.4,1.3,14,4v7.3c-3.6-3.8-8.2-5.6-13.7-5.6
				c-4.1,0-7.3,0.9-9.7,2.7c-2.7,2-4,5-4,9c0,3.9,1.3,6.9,3.8,9.1c2.4,2.1,5.6,3.1,9.5,3.1c2.8,0,5.4-0.7,7.7-2v-11.1H388.7z"/>
			<path style="fill:#FFFFFF;" d="M398.3,124.8V91.7h7.7v33.1H398.3z"/>
			<path style="fill:#FFFFFF;" d="M417.1,124.8V91.7h29v5.5h-21.3v8.7h21.3v5h-21.3v8.9h21.3v5H417.1z"/>
			<path style="fill:#FFFFFF;" d="M454.9,121.7l0.1-6.1c3.9,3.3,8.1,5,12.5,5c2.1,0,3.9-0.3,5.4-0.9c2.1-0.9,3.1-2.2,3.1-4
				c0-1.2-0.6-2.2-1.7-3c-1.4-0.9-3.6-1.6-6.7-2.2l-1.6-0.3c-3.6-0.7-6.3-1.5-8.1-2.5c-0.6-0.3-1.2-0.7-1.7-1.2
				c-0.6-0.6-1.1-1.1-1.3-1.5c-0.6-1-1-2.2-1-3.7c0-3.1,1.4-5.5,4.1-7.4c2.8-1.8,6.4-2.8,10.9-2.8c4.6,0,8.8,1.1,12.7,3.2l-0.1,6.8
				c-1.6-1.5-3.5-2.7-5.6-3.5c-2.3-0.8-4.5-1.3-6.7-1.3c-1.9,0-3.6,0.3-5,0.8c-2,0.8-3,2-3,3.6c0,1.4,1,2.5,3.1,3.3
				c0.9,0.3,2.5,0.7,4.8,1.2l1.6,0.3c3.4,0.7,5.9,1.4,7.5,2.2c3.3,1.7,5,4.2,5,7.4c0,3.4-1.8,6.1-5.3,7.9c-2.8,1.5-6.1,2.2-9.8,2.2
				C463,125.4,458.5,124.1,454.9,121.7z"/>
		</g>
		<g>
			<path style="fill:#FFFFFF;" d="M84,77.9c0-3.4-2.8-6.2-6.2-6.2c-3.4,0-6.2,2.8-6.2,6.2c0,3.4,2.8,6.2,6.2,6.2
				C81.2,84.1,84,81.3,84,77.9z"/>
			<path style="fill:#FFFFFF;" d="M104.2,98c0-3.4-2.8-6.2-6.2-6.2c-3.4,0-6.2,2.8-6.2,6.2s2.8,6.2,6.2,6.2
				C101.5,104.2,104.2,101.4,104.2,98z"/>
			<path style="fill:#FFFFFF;" d="M112.5,77.9c0-3.4-2.8-6.2-6.2-6.2c-3.4,0-6.2,2.8-6.2,6.2c0,3.4,2.8,6.2,6.2,6.2
				C109.7,84.1,112.5,81.3,112.5,77.9z"/>
			<path style="fill:#FFFFFF;" d="M84,49.4c0-3.4-2.8-6.2-6.2-6.2c-3.4,0-6.2,2.8-6.2,6.2c0,3.4,2.8,6.2,6.2,6.2
				C81.2,55.6,84,52.8,84,49.4z"/>
			<path style="fill:#FFFFFF;" d="M62,53.3c-2.4-2.4-6.3-2.4-8.8,0c-2.4,2.4-2.4,6.3,0,8.8c2.4,2.4,6.3,2.4,8.8,0
				C64.4,59.7,64.4,55.8,62,53.3z"/>
			<path style="fill:#FFFFFF;" d="M49.2,71.7c-3.4,0-6.2,2.8-6.2,6.2c0,3.4,2.8,6.2,6.2,6.2c3.4,0,6.2-2.8,6.2-6.2
				C55.4,74.5,52.6,71.7,49.2,71.7z"/>
			<path style="fill:#FFFFFF;" d="M53.4,93.8c-2.4,2.4-2.4,6.3,0,8.8c2.4,2.4,6.3,2.4,8.8,0c2.4-2.4,2.4-6.3,0-8.8
				C59.7,91.3,55.8,91.3,53.4,93.8z"/>
			<path style="fill:#FFFFFF;" d="M71.7,106.6c0,3.4,2.8,6.2,6.2,6.2c3.4,0,6.2-2.8,6.2-6.2c0-3.4-2.8-6.2-6.2-6.2
				C74.5,100.4,71.7,103.1,71.7,106.6z"/>
			<path style="fill:#FFFFFF;" d="M72.9,121.4c0,2.7,2.2,5,5,5c2.7,0,5-2.2,5-5c0-2.7-2.2-5-5-5C75.1,116.4,72.9,118.6,72.9,121.4z"
				/>
			<path style="fill:#FFFFFF;" d="M73.9,136.5c0,2.2,1.8,4,4,4c2.2,0,4-1.8,4-4c0-2.2-1.8-4-4-4C75.7,132.5,73.9,134.3,73.9,136.5z"
				/>
			<path style="fill:#FFFFFF;" d="M74.8,151.7c0,1.7,1.4,3.1,3.1,3.1c1.7,0,3.1-1.4,3.1-3.1c0-1.7-1.4-3.1-3.1-3.1
				C76.2,148.6,74.8,150,74.8,151.7z"/>
		</g>
		<g>
			<path style="fill:#FFFFFF;" d="M82.7,34.5c0-2.7-2.2-5-5-5c-2.7,0-5,2.2-5,5c0,2.7,2.2,5,5,5C80.5,39.5,82.7,37.3,82.7,34.5z"/>
			<path style="fill:#FFFFFF;" d="M67.3,42.6c0-2.2-1.8-4-4-4c-2.2,0-4,1.8-4,4c0,2.2,1.8,4,4,4C65.5,46.7,67.3,44.9,67.3,42.6z"/>
			<path style="fill:#FFFFFF;" d="M81.8,19.4c0-2.2-1.8-4-4-4c-2.2,0-4,1.8-4,4s1.8,4,4,4C80,23.4,81.8,21.6,81.8,19.4z"/>
			<path style="fill:#FFFFFF;" d="M60.9,30c0-1.7-1.4-3.1-3.1-3.1c-1.7,0-3.1,1.4-3.1,3.1c0,1.7,1.4,3.1,3.1,3.1
				C59.5,33.1,60.9,31.8,60.9,30z"/>
			<path style="fill:#FFFFFF;" d="M80.9,4.3c0-1.7-1.4-3.1-3.1-3.1c-1.7,0-3.1,1.4-3.1,3.1c0,1.7,1.4,3.1,3.1,3.1
				C79.5,7.4,80.9,6,80.9,4.3z"/>
			<path style="fill:#FFFFFF;" d="M55.2,16.8c0-1.5-1.2-2.8-2.8-2.8c-1.5,0-2.8,1.2-2.8,2.8c0,1.5,1.2,2.8,2.8,2.8
				C54,19.6,55.2,18.4,55.2,16.8z"/>
			<path style="fill:#FFFFFF;" d="M50.6,43.7c-1.9-1.9-5.1-1.9-7,0c-1.9,1.9-1.9,5.1,0,7c1.9,1.9,5.1,1.9,7,0
				C52.6,48.8,52.6,45.7,50.6,43.7z"/>
			<path style="fill:#FFFFFF;" d="M39.3,33.7c-1.6-1.6-4.1-1.6-5.7,0c-1.6,1.6-1.6,4.1,0,5.7c1.6,1.6,4.1,1.6,5.7,0
				C40.8,37.8,40.8,35.2,39.3,33.7z"/>
			<path style="fill:#FFFFFF;" d="M27.9,23.6c-1.2-1.2-3.2-1.2-4.4,0c-1.2,1.2-1.2,3.2,0,4.4c1.2,1.2,3.2,1.2,4.4,0
				C29.1,26.8,29.1,24.8,27.9,23.6z"/>
			<path style="fill:#FFFFFF;" d="M34.4,72.9c-2.7,0-5,2.2-5,5c0,2.7,2.2,5,5,5c2.7,0,5-2.2,5-5C39.3,75.2,37.1,72.9,34.4,72.9z"/>
			<path style="fill:#FFFFFF;" d="M19.2,73.9c-2.2,0-4,1.8-4,4c0,2.2,1.8,4,4,4c2.2,0,4-1.8,4-4C23.3,75.7,21.5,73.9,19.2,73.9z"/>
			<path style="fill:#FFFFFF;" d="M4.1,74.8c-1.7,0-3.1,1.4-3.1,3.1C1,79.6,2.4,81,4.1,81c1.7,0,3.1-1.4,3.1-3.1
				C7.2,76.2,5.8,74.8,4.1,74.8z"/>
			<path style="fill:#FFFFFF;" d="M43.8,105.1c-1.9,1.9-1.9,5.1,0,7c1.9,1.9,5.1,1.9,7,0c1.9-1.9,1.9-5.1,0-7
				C48.8,103.2,45.7,103.2,43.8,105.1z"/>
			<path style="fill:#FFFFFF;" d="M33.7,116.5c-1.6,1.6-1.6,4.1,0,5.7c1.6,1.6,4.1,1.6,5.7,0c1.6-1.6,1.6-4.1,0-5.7
				C37.8,114.9,35.3,114.9,33.7,116.5z"/>
			<path style="fill:#FFFFFF;" d="M23.7,127.8c-1.2,1.2-1.2,3.2,0,4.4c1.2,1.2,3.2,1.2,4.4,0c1.2-1.2,1.2-3.2,0-4.4
				C26.8,126.6,24.9,126.6,23.7,127.8z"/>
			<path style="fill:#FFFFFF;" d="M45.6,60.3c-1.6-1.6-4.1-1.6-5.7,0c-1.6,1.6-1.6,4.1,0,5.7c1.6,1.6,4.1,1.6,5.7,0
				C47.2,64.4,47.2,61.8,45.6,60.3z"/>
			<path style="fill:#FFFFFF;" d="M32.1,55.9c-1.2-1.2-3.2-1.2-4.4,0c-1.2,1.2-1.2,3.2,0,4.4c1.2,1.2,3.2,1.2,4.4,0
				C33.4,59.1,33.4,57.1,32.1,55.9z"/>
			<path style="fill:#FFFFFF;" d="M18.8,50.6c-1.1-1.1-2.9-1.1-3.9,0c-1.1,1.1-1.1,2.9,0,3.9c1.1,1.1,2.9,1.1,3.9,0
				C19.9,53.4,19.9,51.6,18.8,50.6z"/>
			<path style="fill:#FFFFFF;" d="M42.7,88.5c-2.2,0-4,1.8-4,4c0,2.2,1.8,4,4,4c2.2,0,4-1.8,4-4C46.7,90.3,44.9,88.5,42.7,88.5z"/>
			<path style="fill:#FFFFFF;" d="M30.1,94.9c-1.7,0-3.1,1.4-3.1,3.1c0,1.7,1.4,3.1,3.1,3.1c1.7,0,3.1-1.4,3.1-3.1
				C33.2,96.3,31.8,94.9,30.1,94.9z"/>
			<path style="fill:#FFFFFF;" d="M16.9,100.6c-1.5,0-2.8,1.2-2.8,2.8c0,1.5,1.2,2.8,2.8,2.8c1.5,0,2.8-1.2,2.8-2.8
				S18.4,100.6,16.9,100.6z"/>
			<path style="fill:#FFFFFF;" d="M60.4,110.4c-1.6,1.6-1.6,4.1,0,5.7c1.6,1.6,4.1,1.6,5.7,0s1.6-4.1,0-5.7
				C64.5,108.8,61.9,108.8,60.4,110.4z"/>
			<path style="fill:#FFFFFF;" d="M56,123.8c-1.2,1.2-1.2,3.2,0,4.4c1.2,1.2,3.2,1.2,4.4,0c1.2-1.2,1.2-3.2,0-4.4
				C59.2,122.6,57.2,122.6,56,123.8z"/>
			<path style="fill:#FFFFFF;" d="M50.7,137.2c-1.1,1.1-1.1,2.9,0,3.9c1.1,1.1,2.9,1.1,3.9,0c1.1-1.1,1.1-2.9,0-3.9
				C53.5,136.1,51.8,136.1,50.7,137.2z"/>
		</g>
	</g>
	<g>
		<path style="fill:#FFFFFF;" d="M496.6,91.7c1.1,0,2.2,0.3,3.2,0.9c1,0.6,1.8,1.4,2.4,2.3c0.6,1,0.9,2.1,0.9,3.2
			c0,1.2-0.3,2.2-0.9,3.2c-0.6,1-1.4,1.8-2.3,2.3c-1,0.6-2.1,0.9-3.2,0.9c-1.2,0-2.2-0.3-3.2-0.9c-1-0.6-1.8-1.4-2.3-2.3
			c-0.6-1-0.9-2.1-0.9-3.2c0-1.2,0.3-2.2,0.9-3.2c0.6-1,1.4-1.8,2.4-2.3C494.4,91.9,495.4,91.7,496.6,91.7z M496.6,92.7
			c-1.5,0-2.7,0.5-3.8,1.6c-1,1-1.6,2.3-1.6,3.8c0,1.5,0.5,2.7,1.6,3.8c1,1,2.3,1.6,3.8,1.6c1.5,0,2.7-0.5,3.8-1.6
			c1-1,1.6-2.3,1.6-3.8c0-1.5-0.5-2.7-1.6-3.8C499.3,93.2,498.1,92.7,496.6,92.7z M495.1,101.5H494v-6.9h2.4c0.8,0,1.4,0.1,1.8,0.2
			c0.3,0.1,0.6,0.4,0.8,0.7c0.2,0.3,0.3,0.6,0.3,1c0,0.5-0.2,1-0.6,1.3c-0.4,0.4-0.8,0.6-1.4,0.6c0.3,0.1,0.5,0.3,0.7,0.5
			c0.2,0.2,0.5,0.7,0.9,1.2l0.8,1.3h-1.4l-0.6-1.1c-0.4-0.8-0.8-1.3-1-1.5c-0.3-0.2-0.6-0.3-1-0.3h-0.7V101.5z M495.1,95.6v2.1h1.4
			c0.6,0,1-0.1,1.3-0.3c0.3-0.2,0.4-0.4,0.4-0.8c0-0.4-0.1-0.6-0.4-0.8c-0.3-0.2-0.7-0.2-1.4-0.2H495.1z"/>
	</g>
</g>
</svg>
